<mxfile host="app.diagrams.net" agent="Mozilla/5.0 (X11; Linux x86_64; rv:133.0) Gecko/20100101 Firefox/133.0" version="25.0.3">
  <diagram id="R2lEEEUBdFMjLlhIrx00" name="Page-1">
    <mxGraphModel dx="1366" dy="694" grid="1" gridSize="10" guides="1" tooltips="1" connect="1" arrows="1" fold="1" page="1" pageScale="1" pageWidth="2000" pageHeight="2000" math="0" shadow="0" extFonts="Permanent Marker^https://fonts.googleapis.com/css?family=Permanent+Marker">
      <root>
        <mxCell id="0" />
        <mxCell id="1" parent="0" />
        <mxCell id="l97ZodxlSHaOKT2NLiHh-1" value="&lt;div&gt;Studente&lt;/div&gt;" style="swimlane;whiteSpace=wrap;html=1;" vertex="1" parent="1">
          <mxGeometry x="900" y="40" width="200" height="200" as="geometry" />
        </mxCell>
        <mxCell id="l97ZodxlSHaOKT2NLiHh-2" value="StoricoCorsi" style="swimlane;whiteSpace=wrap;html=1;" vertex="1" parent="1">
          <mxGeometry x="490" y="40" width="200" height="200" as="geometry" />
        </mxCell>
        <mxCell id="l97ZodxlSHaOKT2NLiHh-6" value="StoricoEsperienze" style="swimlane;whiteSpace=wrap;html=1;" vertex="1" parent="1">
          <mxGeometry x="1160" y="310" width="200" height="200" as="geometry" />
        </mxCell>
        <mxCell id="l97ZodxlSHaOKT2NLiHh-8" value="" style="edgeStyle=entityRelationEdgeStyle;fontSize=12;html=1;endArrow=ERmany;startArrow=ERmany;rounded=0;entryX=0;entryY=0.5;entryDx=0;entryDy=0;exitX=1;exitY=0.5;exitDx=0;exitDy=0;" edge="1" parent="1" source="l97ZodxlSHaOKT2NLiHh-2" target="l97ZodxlSHaOKT2NLiHh-1">
          <mxGeometry width="100" height="100" relative="1" as="geometry">
            <mxPoint x="810" y="370" as="sourcePoint" />
            <mxPoint x="910" y="270" as="targetPoint" />
          </mxGeometry>
        </mxCell>
        <mxCell id="l97ZodxlSHaOKT2NLiHh-9" value="&lt;div&gt;Partecipa&lt;/div&gt;" style="edgeLabel;html=1;align=center;verticalAlign=middle;resizable=0;points=[];" vertex="1" connectable="0" parent="l97ZodxlSHaOKT2NLiHh-8">
          <mxGeometry x="0.018" y="2" relative="1" as="geometry">
            <mxPoint as="offset" />
          </mxGeometry>
        </mxCell>
        <mxCell id="l97ZodxlSHaOKT2NLiHh-10" value="" style="edgeStyle=entityRelationEdgeStyle;fontSize=12;html=1;endArrow=ERmany;startArrow=ERmany;rounded=0;entryX=1;entryY=0.75;entryDx=0;entryDy=0;exitX=0;exitY=0.25;exitDx=0;exitDy=0;" edge="1" parent="1" source="l97ZodxlSHaOKT2NLiHh-6" target="l97ZodxlSHaOKT2NLiHh-1">
          <mxGeometry width="100" height="100" relative="1" as="geometry">
            <mxPoint x="760" y="290" as="sourcePoint" />
            <mxPoint x="860" y="190" as="targetPoint" />
            <Array as="points">
              <mxPoint x="1170" y="150" />
              <mxPoint x="1000" y="290" />
              <mxPoint x="1120" y="210" />
              <mxPoint x="1100" y="150" />
              <mxPoint x="1000" y="290" />
              <mxPoint x="1110" y="140" />
              <mxPoint x="990" y="300" />
              <mxPoint x="990" y="280" />
              <mxPoint x="1000" y="270" />
            </Array>
          </mxGeometry>
        </mxCell>
        <mxCell id="l97ZodxlSHaOKT2NLiHh-11" value="Vertical Container" style="swimlane;whiteSpace=wrap;html=1;" vertex="1" parent="1">
          <mxGeometry x="1330" y="50" width="200" height="200" as="geometry" />
        </mxCell>
      </root>
    </mxGraphModel>
  </diagram>
</mxfile>
